<svg fill="none" height="38" viewBox="0 0 40 38" width="40" xmlns="http://www.w3.org/2000/svg">
<g clip-path="url(#clip0_3538_1252)">
<path d="M0.126667 3.48591L2.79439 7.92068C2.83894 7.99483 2.89882 8.05966 2.97043 8.11126C3.04204 8.16285 3.1239 8.20016 3.21107 8.22092L5.69992 8.81205L14.236 16.9213L15.1792 16.0255L6.50947 7.78958C6.42418 7.70831 6.31721 7.65065 6.20003 7.62278L3.80867 7.05279L1.5374 3.2748L3.48462 1.42487L7.46307 3.58472L8.06333 5.85651C8.0925 5.96799 8.1531 6.06981 8.23863 6.15101L16.9084 14.3873L17.8512 13.4912L9.3152 5.38194L8.69295 3.01887C8.67111 2.93594 8.63186 2.85806 8.57755 2.7899C8.52325 2.72174 8.455 2.6647 8.37691 2.62222L3.70845 0.0881503C3.58168 0.0196905 3.43479 -0.00741423 3.29027 0.0109861C3.14575 0.0293865 3.01155 0.0922778 2.90824 0.190031L0.240862 2.72437C0.136516 2.82182 0.0688064 2.94917 0.04817 3.08679C0.0275336 3.2244 0.0551165 3.36465 0.126667 3.48591ZM27.8529 12.4863L13.1814 26.4243L12.2382 25.5283L26.91 11.5906L27.8529 12.4863ZM10.6136 26.9174C10.5544 26.8237 10.4705 26.7461 10.3704 26.6923C10.2702 26.6384 10.157 26.6102 10.0419 26.6102H6.04061C5.92555 26.6102 5.81244 26.6385 5.7123 26.6923C5.61217 26.7462 5.52842 26.8237 5.46921 26.9174L3.4684 30.0851C3.40607 30.1836 3.37314 30.2964 3.37314 30.4114C3.37314 30.5263 3.40607 30.6391 3.4684 30.7377L5.46921 33.9053C5.52846 33.999 5.61222 34.0765 5.71235 34.1304C5.81247 34.1842 5.92556 34.2125 6.04061 34.2126H10.0419C10.157 34.2125 10.2701 34.1842 10.3703 34.1304C10.4704 34.0765 10.5543 33.999 10.6136 33.9053L12.6141 30.7377C12.6764 30.6391 12.7093 30.5263 12.7093 30.4114C12.7093 30.2964 12.6764 30.1836 12.6141 30.0851L10.6136 26.9174ZM9.66467 32.9454H6.4181L4.81761 30.4115L6.41817 27.8771H9.66467L11.2652 30.4115L9.66467 32.9454Z" fill="#2c7294"></path>
<path d="M32.0489 15.2063C36.4534 15.2203 40.0363 11.8396 40.051 7.65523C40.0533 7.01839 39.971 6.38382 39.8061 5.76653C39.7172 5.42693 39.3554 5.22024 38.9979 5.3047C38.8806 5.33257 38.7735 5.39012 38.6879 5.47123L34.5366 9.41235L31.2429 8.36959L30.1445 5.24139L34.2957 1.29686C34.3793 1.21742 34.4392 1.11828 34.4692 1.00963C34.4991 0.900966 34.4982 0.786687 34.4663 0.678503C34.4345 0.570318 34.373 0.472118 34.2881 0.393967C34.2031 0.315815 34.0978 0.260523 33.983 0.233757C29.7116 -0.793856 25.3723 1.66249 24.2906 5.7201C24.1262 6.33569 24.0442 6.96851 24.0464 7.60359C24.0481 8.10245 24.1021 8.59971 24.2085 9.0881L9.60351 22.9627C9.08944 22.862 8.56604 22.8104 8.04115 22.8087C3.62123 22.8087 0.0383301 26.2124 0.0383301 30.4114C0.0383301 34.61 3.62123 38.0137 8.04115 38.0137C12.4608 38.0137 16.0436 34.61 16.0436 30.4114C16.042 29.9126 15.9876 29.4153 15.8815 28.9269L19.378 25.6052L20.9071 27.0579C21.0322 27.1767 21.2018 27.2434 21.3787 27.2434C21.5556 27.2434 21.7252 27.1767 21.8503 27.0579L22.1836 26.741C22.4761 26.465 22.9487 26.465 23.2412 26.741C23.5333 27.0177 23.5339 27.4671 23.2426 27.7447L23.2412 27.746L22.9079 28.0626C22.6475 28.3099 22.6475 28.7111 22.9079 28.9584L30.8632 36.5159C32.9556 38.5219 36.3634 38.5365 38.475 36.5487C40.5863 34.5609 40.6017 31.3232 38.5093 29.3174C38.4981 29.3065 38.4866 29.2956 38.475 29.2846L30.5198 21.7273C30.2594 21.48 29.8372 21.48 29.5769 21.7273L29.2435 22.0439C28.9508 22.3202 28.4784 22.3202 28.1857 22.0439C27.8938 21.7672 27.893 21.3179 28.1843 21.0406C28.1849 21.0401 28.1854 21.0398 28.1857 21.0392L28.5193 20.7223C28.7797 20.475 28.7797 20.0739 28.5193 19.8266L26.9901 18.3739L30.4866 15.0522C31.0006 15.1531 31.5241 15.2047 32.049 15.2063L32.0489 15.2063ZM34.6691 36.7468C34.1847 36.746 33.7043 36.6628 33.2508 36.501L38.4591 31.5528C39.2451 33.539 38.1875 35.7543 36.0967 36.501C35.6403 36.664 35.1567 36.7473 34.6691 36.7468ZM27.1141 20.2809C26.3755 21.1177 26.4913 22.3651 27.3722 23.0664C28.1464 23.6828 29.2748 23.6822 30.0481 23.0646L37.5321 30.1807C37.6133 30.258 37.6893 30.3396 37.7628 30.4225L32.0609 35.8393C31.9726 35.7698 31.8876 35.6967 31.8061 35.6201L24.3163 28.5043C25.0549 27.6675 24.9391 26.4201 24.0582 25.7188C23.284 25.1021 22.1553 25.103 21.382 25.7203L20.3151 24.7068L26.0469 19.2696L27.1141 20.2809ZM29.807 13.9089L14.6785 28.2781C14.5969 28.3555 14.5379 28.4516 14.507 28.5571C14.4761 28.6626 14.4745 28.7738 14.5023 28.8801C15.4172 32.2935 13.2461 35.7653 9.65281 36.6342C6.0598 37.5033 2.40533 35.4407 1.49036 32.0271C0.575738 28.6137 2.74679 25.142 6.34016 24.2728C7.42706 24.0101 8.56591 24.0101 9.65281 24.2728C9.76466 24.2988 9.88166 24.2971 9.99261 24.2679C10.1036 24.2386 10.2048 24.1828 10.2865 24.1058L25.4115 9.73634C25.4929 9.65897 25.5519 9.56287 25.5826 9.45739C25.6133 9.35192 25.6148 9.24068 25.5868 9.13453C24.6781 5.76106 26.8201 2.32655 30.3712 1.46313C31.0424 1.30009 31.7363 1.23782 32.4277 1.27858L28.9098 4.6219C28.8222 4.70499 28.7607 4.80961 28.7322 4.92404C28.7038 5.03847 28.7094 5.15818 28.7485 5.26974L30.0821 9.07122C30.115 9.16447 30.1702 9.24919 30.2435 9.31866C30.3168 9.38814 30.406 9.44048 30.5043 9.47153L34.5058 10.7387C34.6232 10.7758 34.7492 10.7812 34.8696 10.7542C34.99 10.7273 35.1002 10.669 35.1878 10.5859L38.7056 7.24397C38.7136 7.36369 38.7177 7.48362 38.7178 7.60359C38.7364 11.0848 35.7812 13.9211 32.1168 13.9391C31.5503 13.9418 30.9858 13.8755 30.437 13.7421C30.3253 13.7156 30.2082 13.7169 30.0971 13.7461C29.9861 13.7753 29.8849 13.8313 29.8033 13.9086H29.8069L29.807 13.9089Z" fill="#2c7294"></path>
<path d="M34.5217 31.8638L33.5785 32.7598L26.9099 26.4246L27.8528 25.5286L34.5217 31.8638Z" fill="#2c7294"></path>
</g>
<defs>
<clippath id="clip0_3538_1252">
<rect fill="#2c7294" height="38" width="40"></rect>
</clippath>
</defs>
</svg>