<svg fill="none" height="40" style="
" viewBox="0 0 40 40" width="40" xmlns="http://www.w3.org/2000/svg">
<g fill="#2c7294">
<path d="m5.62918 39.9979c-.31715-.2212-.39749-.5237-.39749-.9056.00939-7.2633.00731-14.5266.00731-21.7888 0-.9181.1085-1.0298 1.02033-1.0506.06259-.0011.12519-.0084.22952-.0157 0-.7 0-1.3855 0-2.0719 0-.4685.01356-.9379-.00418-1.4053-.01565-.4194.07825-.7543.58528-.8868-.14397-.9108-.2629-1.8101-.43191-2.70107-.32655-1.71724-.80855-3.38857-1.63691-4.93993-.23161-.434-.51747-.84088-.80124-1.24359-.26917-.38184-.27334-.72299.02921-.96503.29942-.23996.6531-.18153.94939.18257.86488 1.06519 1.40947 2.30148 1.85704 3.58262.66352 1.89982 1.02345 3.8664 1.24567 5.86113.0073.0626.01669.1242.02713.2066h.67396c-.02504-.5488-.03861-1.0902-.07512-1.6307-.18779-2.76465-.64475-5.473-1.72141-8.04782-.16484-.39436-.37037-.77307-.56546-1.15491-.20031-.390185-.14293-.730294.17005-.922257.32655-.2003101.7063-.1043284.90974.307767.37872.76785.71152 1.55762 1.05998 2.34008.06259.1398.10641.28898.22847.43087 0-.61032 0-1.21959 0-1.82991 0-.23474-.00834-.469478.00313-.703172.01878-.374538.26708-.6290978.60511-.63848734.35367-.00938952.63012.25247334.63642.64579034.0125.767849.0042 1.535709.0052 2.303559 0 .07512 0 .14919.0522.23474.1898-.4893.363-.9859.5758-1.46581.2045-.46217.433-.917041.6824-1.356261.2117-.37453771.5748-.4642597.892-.26708.3004.186747.3776.529986.1815.888874-1.2801 2.348427-1.8362 4.905497-2.1429 7.527267-.1283 1.09544-.1815 2.19816-.2713 3.33016h.6938c.1158-.7814.2139-1.5775.3537-2.36722.3693-2.09595.9191-4.13764 1.9572-6.0145.2441-.44131.5373-.86071.8419-1.26342.2807-.3714.6489-.42252.9473-.18361.3005.23995.3099.59467.023.96294-1.0944 1.40635-1.6849 3.04534-2.1033 4.74171-.3318 1.34688-.5404 2.723-.8096 4.123.6103.1555.6396.5665.6333 1.0256-.0157 1.1048-.0052 2.2107-.0052 3.3781.2034 0 .3923-.0062.58.0011.4163.0177.6448.2441.6677.6572.0042.0783.0011.1565.0011.2348 0 7.3155-.0021 14.6299.0073 21.9454 0 .3808-.0814.6844-.3975.9055h-7.96962zm.85967-16.6309c2.08134-1.0412 4.10005-2.049 6.11575-3.0652.0636-.0323.1262-.1377.1272-.2107.0094-.7115.0052-1.423.0052-2.1471-.0699.0105-.1105.0073-.1429.023-1.9749.9848-3.94984 1.9686-5.91955 2.9639-.08868.0449-.17631.191-.1784.2911-.01565.6886-.00835 1.3771-.00835 2.144zm0 3.6723c.05216.0178.06781.0282.07616.024 1.99996-.9942 3.99889-1.9895 5.99679-2.99.0709-.0355.1659-.121.1669-.1847.0115-.7303.0073-1.4606.0073-2.2472-2.0772 1.0381-4.08443 2.0407-6.08858 3.0506-.07302.0365-.15023.1523-.15127.2326-.01148.7094-.0073 1.4189-.0073 2.1147zm0 3.8268c2.07612-1.0391 4.08335-2.0417 6.08755-3.0527.0741-.0375.1533-.1512.1544-.2316.0115-.7094.0073-1.4188.0073-2.1262-.0647 0-.0939-.0083-.1137.0011-1.9875.989-3.97388 1.978-5.95611 2.9775-.08763.0438-.16901.1941-.1711.2952-.0146.6876-.00834 1.3761-.00834 2.1356zm6.24815-1.6766c-.074.0136-.1147.0115-.146.0272-1.9749.9848-3.94987 1.9697-5.92062 2.9618-.07721.0386-.1711.143-.17319.2181-.01356.7198-.0073 1.4397-.0073 2.218 2.07195-1.037 4.07921-2.0396 6.08231-3.0506.0741-.0375.1565-.1502.1575-.2295.0126-.7105.0073-1.4209.0073-2.146zm-6.24815 9.1746c2.07925-1.0401 4.08755-2.0437 6.09175-3.0547.073-.0365.1491-.1533.1502-.2347.0115-.7084.0073-1.4168.0073-2.1283-.0699.0052-.0981 0-.1189.0094-1.9864.99-3.97389 1.9791-5.95613 2.9775-.08137.0407-.16483.1711-.16692.2608-.01356.7001-.0073 1.4001-.0073 2.17zm4.97125-22.1279v-3.0756h-3.70158v3.0756zm-4.95247 1.2874v2.0845c1.37608-.6876 2.71357-1.3574 4.05207-2.0261l-.0188-.0584zm2.16897 21.1431.01461.0542h4.01979v-2.0698c-1.3709.6854-2.7032 1.35-4.0344 2.0156z"></path>
<path d="m26.8777 39.9979c-.3172-.2212-.3975-.5237-.3975-.9056.0094-7.2622.0073-14.5245.0073-21.7868 0-.9191.1106-1.0339 1.0172-1.0526.0626-.0011.1262-.0084.2326-.0146 0-.6719 0-1.3313 0-1.9906 0-.5081 0-1.0151 0-1.5232.0011-.554.0845-.675.625-.8805v-.409c0-2.66766 0-5.33637 0-8.00404 0-.13041-.0136-.26395.0114-.38914.0668-.3349.2796-.53208.625-.5279.3275.00417.5299.19926.5978.51433.0271.1252.0146.25874.0146.38915v8.004.4382h1.2498c0-.1356 0-.2733 0-.41 0-1.2624-.001-2.52473 0-3.7871 0-.49243.2337-.77828.6228-.77933.3892 0 .6239.28586.625.77725.0021 1.24984 0 2.49868 0 3.74848v.4465h1.2498v-.4319c0-2.66764 0-5.33635 0-8.00402 0-.11684-.0115-.23682.0073-.35054.0553-.33802.2588-.5352.603-.55607.3224-.01982.5926.22744.6323.5665.0146.12833.0073.25978.0073.39019v8.38384c.5341.0991.6405.4653.6312.9493-.0199 1.131-.0063 2.2619-.0063 3.4533.218 0 .4215-.0104.6218.0021.3714.0229.5947.2493.6249.6197.0073.0908.0031.1826.0031.2733 0 7.3145-.002 14.6289.0073 21.9433 0 .3808-.0813.6844-.3974.9056h-9.2185zm8.3326-1.2686v-21.1953h-7.4532v21.1963h7.4532zm-6.2054-22.5036h4.9504v-3.0755h-4.9504z"></path>
<path d="m17.5038 39.9979c-.3172-.2212-.3975-.5237-.3975-.9056.0094-7.2737.0073-14.5485.0073-21.8222 0-.8774.1221-.9995 1.013-1.0172.0637-.0011.1263-.0073.2369-.0146 0-.3568 0-.7043 0-1.0506 0-1.0151 0-2.0302 0-3.0454 0-.699.1815-.8836.869-.8878h.3808v-.4517c0-3.29262 0-6.58417 0-9.876756 0-.13041-.0125-.263949.0125-.389143.0637-.317157.265-.5122504.5916-.5216399.3453-.00938951.5602.1867469.6311.5195529.0272.125194.0136.258734.0136.389144v9.876742.4538c.1784 0 .3182-.001.458 0 .5801.0052.7908.2181.7919.8096.002 1.2884 0 2.5769 0 3.8643v.3255c.2086 0 .3985-.0073.5863.0011.4142.0187.6395.2472.6614.6624.0042.0783.0011.1565.0011.2337 0 7.3134-.0021 14.6268.0073 21.9392 0 .3808-.0814.6844-.3975.9055h-5.4689zm.8857-22.4764v21.1953h3.7037v-21.1953zm2.4455-1.2853v-3.6995h-1.2019v3.6995z"></path>
<path d="m32.1097 4.10701c0 .29942.0115.59884-.0031.89722-.0188.3714-.2807.62283-.6197.62283-.3401 0-.6103-.25143-.6197-.62179-.0146-.62388-.0146-1.24985 0-1.87373.0083-.37141.2785-.6218.6186-.62284.3401 0 .603.25039.6208.6218.0156.32446.0031.64996.0031.97546z"></path>
<path d="m29.609.621409c.0062.338022-.2734.625971-.6114.632231s-.626-.2723-.6322-.611366c-.0063-.339066.2712-.6259677.6113-.6322274.3391-.00625967.626.2722964.6323.6113624z"></path>
<path d="m31.4806 1.25364c-.3391-.00418-.6187-.290037-.6155-.628059.0042-.340109.2879-.61866518.628-.6155353.3391.0041731.6197.2889883.6156.6280543-.0042.338023-.2901.61971-.6281.61554z"></path>
<path d="m33.9824.0100471c.3391-.0020866.6239.2775119.626.6176219.0021.338022-.2796.623881-.6177.625971-.338.00208-.6228-.278559-.6259-.617625-.0021-.340109.2775-.6228381.6176-.6259679z"></path>
<path d="m30.237 24.0639c0 1.5232.0021 3.0453-.001 4.5685 0 .4278-.2035.6896-.5457.7355-.3881.0522-.6958-.2441-.7-.6969-.0073-.7417-.0021-1.4835-.0021-2.2253 0-2.291-.0031-4.5821.0063-6.8721 0-.1972.0302-.4642.1565-.5727.1596-.1377.4423-.2264.651-.1951.3171.048.4382.3297.4371.6499-.0021 1.0934 0 2.1868 0 3.2801v1.3281z"></path>
<path d="m29.5923 30.6282c.338-.0104.6301.264.6406.602.0104.337-.265.6301-.6031.6406-.338.0104-.6301-.264-.6405-.6031-.0105-.339.2629-.629.6019-.6405z"></path>
<path d="m20.8621 27.2177v4.4121c0 .1168.0115.2378-.0146.3505-.0709.3151-.2744.5091-.6009.5112-.3453.0031-.5655-.194-.6208-.531-.0334-.2035-.0135-.4152-.0135-.6239 0-2.7856 0-5.5711 0-8.3567 0-.0782 0-.1565 0-.2347.001-.5686.2076-.8597.6145-.8659.4183-.0073.6343.2931.6343.8857v1.6787 2.772z"></path>
<path d="m20.2309 19.3806c.3391-.0042.625.2754.6291.6145.0042.338-.2775.6249-.6155.6291s-.6239-.2765-.6281-.6155c-.0041-.3401.2744-.6239.6145-.6281z"></path>
</g>
</svg>